<!DOCTYPE svg PUBLIC "-//W3C//DTD SVG 1.1//EN" "http://www.w3.org/Graphics/SVG/1.1/DTD/svg11.dtd">
<!-- Uploaded to: SVG Repo, www.svgrepo.com, Transformed by: SVG Repo Mixer Tools -->
<svg fill="#18b187" width="800px" height="800px" viewBox="0 0 512 512" version="1.1" xml:space="preserve" xmlns="http://www.w3.org/2000/svg" xmlns:xlink="http://www.w3.org/1999/xlink" stroke="#18b187">
<g id="SVGRepo_bgCarrier" stroke-width="0"/>
<g id="SVGRepo_tracerCarrier" stroke-linecap="round" stroke-linejoin="round"/>
<g id="SVGRepo_iconCarrier"> <g id="_x32_2_x2C__pregnancy_x2C__pregnant_x2C__baby_x2C__obstetrics_x2C__fetus"> <g> <path d="M99.006,136.102c-9.923,17.523-15.733,35.109-17.272,52.789 c-0.125,1.602-0.219,3.203-0.314,4.773c-0.156,6.563,0.252,13.064,1.193,19.502c4.492,30.335,20.978,59.478,44.593,85.292 c9.516,10.425,19.816,20.097,30.619,29.268c10.427,8.793,21.292,17.084,32.377,25.028c17.742-3.108,36.836-10.426,53.134-21.291 c14.603-9.735,26.944-22.297,33.884-37.151c6.219-13.376,2.167-21.636-2.323-30.774c-5.369-10.93-11.306-22.924-4.992-44.279 c2.136-7.223,4.459-13.504,6.595-19.281c7.725-20.789,13.096-35.329-4.743-60.232l-0.03-0.095 c-7.851-10.237-17.554-20.913-28.672-28.764c-10.866-7.663-23.175-12.657-36.458-11.715c-9.58,0.659-17.492,2.576-25.437,4.459 c-11.18,2.671-22.454,5.371-39.066,5.025l-0.974-0.032c-4.082-0.063-16.768-0.345-17.272-0.155 c-1.695,0.626-5.15,3.767-8.854,7.567c-5.371,5.494-10.897,12.091-12.845,15.105C101.048,132.772,100.012,134.438,99.006,136.102 M121.24,136.729c1.507-1.507,3.957-1.507,5.464,0s1.507,3.957,0,5.464c-0.095,0.063-25.563,25.406-15.042,57.688 c0.658,2.043-0.472,4.21-2.481,4.868c-2.042,0.659-4.208-0.47-4.868-2.479C92.349,165.432,121.146,136.793,121.24,136.729z M243.65,202.521c0.942-1.916,3.268-2.669,5.15-1.729c1.916,0.942,2.671,3.268,1.729,5.15 c-0.032,0.063-12.404,23.554-2.325,39.317c5.968,9.328,10.458,19.125,10.928,29.361c0.504,10.459-3.139,21.137-13.502,31.906 c-1.476,1.508-3.925,1.571-5.433,0.096c-1.539-1.477-1.602-3.926-0.126-5.434c8.698-9.043,11.776-17.805,11.401-26.223 c-0.409-8.666-4.429-17.24-9.735-25.561C229.205,229.84,243.619,202.584,243.65,202.521z M247.858,43.336 c2.136,0,3.864,1.759,3.864,3.863c0,2.135-1.729,3.861-3.864,3.861h-13.503c-2.104,0-3.862-1.727-3.862-3.861 c0-2.104,1.758-3.863,3.862-3.863H247.858z M365.652,26.002h-151.05c-37.934,24.84-68.176,49.805-90.222,74.897 c4.868-0.189,13.536-0.032,16.896,0.062h0.972c15.514,0.314,26.379-2.26,37.151-4.836c8.226-1.946,16.393-3.926,26.691-4.646 c15.263-1.068,29.206,4.49,41.423,13.125c11.837,8.354,22.077,19.598,30.302,30.367l0.222,0.283 c20.223,28.232,14.257,44.341,5.715,67.391c-2.136,5.748-4.459,11.998-6.47,18.812c-5.464,18.434-0.251,29.048,4.521,38.657 c5.34,10.867,10.176,20.727,2.387,37.434c-7.598,16.267-20.883,29.864-36.584,40.32c-15.136,10.082-32.564,17.272-49.303,21.105 c12.97,17.209,19.03,37.746,21.197,60.2c2.041,21.039,0.628,43.712-1.758,66.826h149.699v-29.144c0-1.317,0.659-2.48,1.665-3.171 c39.631-28.42,60.797-63.059,61.488-104.511c0.689-41.923-19.407-91.102-62.367-148.256l-0.504-0.879 c-12.436-30.587-18.338-60.859-18.213-90.756c0.094-19.564,2.795-38.971,7.977-58.223H267.36c-2.136,0-3.862-1.727-3.862-3.861 c0-2.104,1.727-3.863,3.862-3.863h92.326C361.445,37.559,363.424,31.779,365.652,26.002z M367.946,275.816 c-1.446-1.57-1.383-4.02,0.188-5.465c1.539-1.445,3.989-1.351,5.433,0.22c0.188,0.188,67.016,70.72-2.135,145.806 c-1.445,1.57-3.895,1.665-5.434,0.251c-1.57-1.444-1.663-3.894-0.25-5.464C430.031,341.354,368.102,276.004,367.946,275.816z" style="fill-rule:evenodd;clip-rule:evenodd;"/> </g> </g> <g id="Layer_1"/> </g>
</svg>